<svg width="146" height="48" viewBox="0 0 146 48" fill="none" xmlns="http://www.w3.org/2000/svg">
<path fill-rule="evenodd" clip-rule="evenodd" d="M83.7383 0.293775C83.573 0.468776 83.0869 1.13962 82.6591 1.78129C82.2411 2.42296 81.6188 3.40492 81.2786 3.96881C80.9383 4.5327 80.2577 5.77716 79.7619 6.73967C79.266 7.70218 78.566 9.14108 78.216 9.94804C77.8563 10.7453 77.341 11.9508 77.0785 12.6217C76.8063 13.2925 76.398 14.3814 76.1549 15.0523C75.9118 15.7231 75.591 16.6662 75.4355 17.1425C75.2702 17.6189 74.9299 18.7176 74.6674 19.5731C74.4146 20.4287 74.0646 21.6537 73.909 22.2954C73.7438 22.9371 73.5202 23.8801 73.4132 24.3857C73.3063 24.8912 73.1021 25.9607 72.9563 26.7676C72.791 27.7107 72.7035 28.6343 72.6938 29.3732C72.6743 30.4232 72.6938 30.5399 72.8688 30.6663C72.9757 30.7441 73.2188 30.8316 73.4035 30.8607C73.6563 30.8996 73.7924 30.8705 73.9188 30.7343C74.016 30.6371 74.4632 29.9468 74.9007 29.1982C75.348 28.4496 76.1646 27.001 76.7285 25.9899C77.1426 25.2473 77.8137 24.0329 78.422 22.9318L78.4305 22.9164L78.4322 22.9135L78.4333 22.9115L78.4352 22.9079L78.4522 22.8771L79.0424 21.8093C79.7522 20.5259 80.7924 18.7078 81.3563 17.7745C81.9202 16.8412 82.8536 15.3536 83.4466 14.4689C84.03 13.5842 84.9342 12.3008 85.4592 11.6008C85.9842 10.9008 86.7911 9.86053 87.2578 9.26747C87.7342 8.67441 88.5411 7.72163 89.0661 7.12856C89.5814 6.5355 90.6412 5.4466 91.4092 4.68826C92.1676 3.93964 93.1495 3.06464 93.5773 2.7438C94.0051 2.43268 94.637 2.03407 94.987 1.85907C95.337 1.68407 95.7648 1.53823 95.9398 1.53823C96.1829 1.53823 96.2509 1.57712 96.2509 1.73268C96.2509 1.83962 96.0954 2.35491 95.9009 2.87019C95.7065 3.39519 94.987 5.02854 94.3065 6.49661C93.6259 7.96468 92.6537 10.1133 92.1384 11.2605C91.6328 12.4078 90.8064 14.362 90.3009 15.587C89.7856 16.812 88.9884 18.8051 88.5217 20.0106C88.3416 20.4757 88.137 21.006 87.9357 21.5276L87.9301 21.542L87.9284 21.5464C87.6105 22.3703 87.3016 23.1705 87.112 23.6565C86.8008 24.4635 86.2953 25.7954 85.9939 26.6218C85.6925 27.4482 85.1869 28.8968 84.8661 29.8302C84.555 30.7635 84.1369 32.1927 83.9522 32.9899C83.7675 33.7969 83.6119 34.6038 83.6119 34.7886C83.6119 34.9733 83.6508 35.1677 83.6897 35.2261C83.7286 35.2844 83.9036 35.4205 84.0786 35.5469C84.2439 35.6636 84.4383 35.7608 84.4869 35.7608C84.5355 35.7608 84.6036 35.6636 84.6328 35.5372C84.6482 35.4753 84.6719 35.3616 84.6994 35.2293L84.6996 35.2281L84.6998 35.2272C84.7241 35.1104 84.7513 34.9793 84.7786 34.8566C84.8272 34.6038 85.0605 33.8649 85.2744 33.2135C85.498 32.5524 86.0133 31.1038 86.4314 29.976C86.8494 28.8482 87.4328 27.3218 87.7245 26.5732C87.8376 26.292 87.9796 25.9409 88.1293 25.5709L88.1417 25.5403L88.1448 25.5327C88.3893 24.9281 88.6523 24.278 88.8425 23.8023C89.0027 23.4139 89.2139 22.9043 89.4251 22.3945C89.6368 21.8834 89.8486 21.3722 90.0092 20.9829C90.254 20.3894 90.6006 19.5753 90.8721 18.9377L90.8724 18.9371C90.9566 18.7392 91.0336 18.5584 91.0981 18.4065C91.3801 17.7648 92.362 15.6259 93.2856 13.6425C94.2092 11.6689 95.2787 9.29664 95.6579 8.39246C96.0468 7.48829 96.5523 6.12716 96.7857 5.37855C97.019 4.62993 97.2523 3.66742 97.3204 3.23964C97.4079 2.64658 97.4079 2.31602 97.3204 1.8299C97.2621 1.4799 97.1454 1.05212 97.0676 0.877114C96.9898 0.711834 96.8245 0.459054 96.6884 0.322942C96.5329 0.167385 96.3384 0.0798836 96.1343 0.0798836C95.9593 0.0798836 95.5995 0.186829 95.3273 0.313219C95.0648 0.439609 94.5106 0.770168 94.112 1.06184C93.694 1.34378 92.4106 2.53963 91.1467 3.81325C89.912 5.04799 88.3564 6.7105 87.6953 7.51746C87.0245 8.31469 85.955 9.67581 85.3036 10.5314C84.6619 11.3869 83.6994 12.7383 83.155 13.5453C82.6202 14.3425 81.823 15.5967 81.3758 16.3162C80.9286 17.0356 80.0147 18.6106 79.3341 19.8162C78.6535 21.0218 77.6619 22.8107 77.1271 23.8023C76.5924 24.794 75.8146 26.1746 75.3966 26.8649C74.9785 27.5552 74.5021 28.3232 74.3368 28.5663C74.1521 28.8482 74.0257 28.9552 74.0063 28.8579C73.9868 28.7802 74.0841 28.2746 74.2202 27.7399C74.3466 27.2051 74.6771 26.0871 74.9396 25.2607C75.2021 24.4343 75.6396 23.1218 75.9118 22.344C76.1743 21.5662 76.5535 20.5162 76.7382 20.0106C76.923 19.5051 77.4091 18.2509 77.8174 17.2398C78.2355 16.2287 78.9258 14.5856 79.3535 13.5939C79.7911 12.6022 81.2397 9.61748 82.5814 6.94384C85.0022 2.15074 85.0217 2.0924 85.0217 1.48962C85.0217 0.964615 84.9828 0.81878 84.73 0.449332C84.5647 0.225718 84.3411 0.0215498 84.2342 0.00210512C84.1175 -0.0173395 83.923 0.0993283 83.7383 0.293775ZM31.3253 1.95629C31.2767 2.01462 30.4892 3.54103 29.585 5.32993C28.6808 7.11884 27.6697 9.19942 27.3392 9.94804C27.0183 10.6967 26.5419 11.8342 26.2891 12.4758C26.0461 13.1175 25.5794 14.4106 25.2586 15.3439C24.9475 16.2773 24.4613 17.8134 24.1988 18.7467C23.9363 19.6801 23.635 20.8662 23.528 21.3718C23.4211 21.8773 23.2752 22.8398 23.1877 23.5107C23.1099 24.1815 23.0419 25.0176 23.0419 25.3774C23.0419 25.7468 23.0905 26.2718 23.1586 26.544C23.2169 26.8454 23.3627 27.1468 23.4794 27.2538C23.6058 27.3607 23.8877 27.5065 24.1211 27.5746C24.3544 27.6524 24.6363 27.6815 24.7433 27.6524C24.8502 27.6232 25.1419 27.3899 25.3947 27.1371C25.6377 26.8746 26.6878 25.3968 27.7183 23.8509C28.7392 22.3051 29.8475 20.6815 30.1683 20.2537C30.4989 19.8259 30.9461 19.2523 31.1697 18.9898C31.3934 18.7176 31.7434 18.387 31.9475 18.2412L31.9612 18.2319L31.9613 18.2318L31.9615 18.2316L31.9617 18.2315C32.1695 18.0898 32.3468 17.9689 32.3753 17.9689C32.4045 17.9689 32.385 18.2898 32.3461 18.6787C32.2975 19.0578 32.2781 20.0106 32.2975 20.7884C32.317 21.7995 32.3656 22.2857 32.4725 22.4898C32.56 22.6454 32.7545 22.8398 32.91 22.9176C33.0753 22.9857 33.3378 23.0732 33.4934 23.0926C33.717 23.1315 33.8628 23.0732 34.1156 22.869C34.3392 22.6745 34.6406 22.1884 35.049 21.3231C35.3892 20.6329 35.9434 19.4662 36.2837 18.7467C36.624 18.0273 37.0906 17.1328 37.3045 16.7537C37.5184 16.3745 37.9656 15.7231 38.2865 15.2953C38.6073 14.8675 39.1809 14.1675 39.5698 13.7397C40.2018 13.0397 40.2504 12.9425 40.1143 12.8161C39.9879 12.6897 39.9296 12.6897 39.6476 12.8161C39.4726 12.8939 38.9768 13.312 38.549 13.7397C38.1212 14.1675 37.5379 14.8675 37.2559 15.2953C36.9642 15.7231 36.1281 17.3078 35.3795 18.8148C34.5045 20.594 33.9795 21.5662 33.8823 21.5662C33.7753 21.5662 33.7462 21.4787 33.785 21.1968C33.8045 21.0023 33.8726 20.4676 33.9406 20.0106C33.9989 19.5537 34.1545 18.7273 34.2809 18.1634C34.417 17.5995 34.6309 16.6273 34.7573 15.9953C34.8934 15.3731 35.0003 14.6731 35.0003 14.4397C34.9906 14.0995 34.9323 13.9731 34.6309 13.6717C34.4364 13.4772 34.1739 13.312 34.0573 13.3022C33.9114 13.3022 33.7656 13.4092 33.6392 13.6133C33.5323 13.7884 33.3378 14.2647 33.2114 14.6634C33.0753 15.062 32.8712 15.8106 32.7545 16.3162L32.5406 17.2398C31.5295 17.7162 31.1114 18.0564 30.5281 18.6398C29.9156 19.262 29.1669 20.244 27.6114 22.4898C26.4641 24.1523 25.2683 25.7662 24.9572 26.0871L24.3933 26.6704C24.4711 25.2412 24.6072 24.2496 24.7433 23.5593C24.8794 22.869 25.2002 21.6148 25.4433 20.7884C25.6864 19.962 26.1628 18.5134 26.4933 17.5801C26.8239 16.6467 27.3392 15.2856 27.6405 14.5661C27.9322 13.8467 29.06 11.2411 30.1392 8.78136C31.2184 6.32161 32.1614 4.06603 32.2489 3.77436C32.3364 3.45353 32.3753 3.0938 32.3364 2.87019C32.3073 2.6563 32.1517 2.37435 31.967 2.17018C31.792 1.98546 31.5975 1.83962 31.5392 1.8299C31.4711 1.8299 31.3836 1.88823 31.3253 1.94657V1.95629ZM22.2155 2.55907C22.5363 2.32574 22.9252 2.10213 23.0808 2.05351C23.2461 1.99518 23.4697 2.0049 23.6447 2.07296C23.8197 2.14101 24.053 2.35491 24.2183 2.61741C24.3738 2.86047 24.5586 3.29797 24.6169 3.58964C24.7044 4.0077 24.7044 4.32854 24.6169 5.04799C24.5488 5.55355 24.335 6.60356 24.1502 7.38134C23.9558 8.15913 23.528 9.70498 23.1877 10.8328C22.8474 11.9606 22.3613 13.4675 22.1183 14.187C21.8752 14.9064 21.6808 15.5578 21.6808 15.6161C21.6808 15.6939 21.9433 15.7814 22.4099 15.8398C22.8086 15.8981 23.3724 16.0148 23.6447 16.1023C23.9947 16.2189 24.1988 16.3648 24.3058 16.5398C24.403 16.7148 24.4225 16.8412 24.3544 16.9092C24.2863 16.9967 24.0433 16.9773 23.4308 16.8606C22.9738 16.7828 22.303 16.7148 21.2433 16.7634L21.0196 17.4439C20.8933 17.8231 20.5141 19.0384 20.1738 20.1662C19.8335 21.294 19.2405 23.3454 18.8613 24.7357C18.4821 26.126 17.821 28.6441 17.4029 30.326C16.9946 32.008 16.596 33.7872 16.5279 34.2635C16.4696 34.7399 16.3918 35.158 16.3724 35.1872C16.3432 35.2163 16.1585 35.1774 15.964 35.0997C15.7696 35.0316 15.5265 34.8955 15.4293 34.808C15.2932 34.6816 15.2543 34.4969 15.264 33.8747C15.264 33.4469 15.371 32.5233 15.4974 31.833C15.6335 31.1427 15.9154 29.7135 16.139 28.6732C16.3627 27.6329 16.6543 26.3204 16.7807 25.7565L17.032 24.7151L17.5196 22.694C17.7918 21.5662 18.2196 19.8356 18.4821 18.8245C18.7446 17.8231 18.9585 16.9481 18.9585 16.88C18.9585 16.7925 18.7932 16.7828 18.2585 16.8412C17.8696 16.8898 16.6835 17.055 15.6335 17.2106C14.3599 17.3953 13.621 17.5509 13.4557 17.6578C13.2807 17.7745 12.9307 18.3676 12.396 19.437C11.9584 20.3217 11.239 21.8093 10.8112 22.7426C10.3834 23.6759 9.73204 25.1635 9.36259 26.0482C8.98342 26.9329 8.47786 28.1968 8.21536 28.8677C7.96258 29.5385 7.53479 30.6566 7.26257 31.3469C6.99035 32.0371 6.65979 32.7274 6.54312 32.8733C6.32923 33.126 6.29034 33.1455 5.76533 33.0872C5.45422 33.0483 5.12366 32.951 5.03616 32.8635C4.90005 32.7371 4.85144 32.3969 4.77366 31.0066C4.71532 30.0732 4.60838 29.0816 4.54032 28.8191C4.46254 28.5468 4.2681 28.0704 4.11254 27.7496C3.94726 27.4288 3.4417 26.7482 2.99447 26.2426C2.54725 25.7371 2.02224 25.1926 1.83752 25.0468C1.65279 24.8912 1.29307 24.5218 1.04029 24.2204C0.787508 23.919 0.447227 23.4037 0.281947 23.0829C0.106945 22.7329 0 22.344 0 22.1107C0 21.8968 0.0583339 21.5565 0.145835 21.3523C0.223613 21.1579 0.456949 20.8079 0.661118 20.594C0.855564 20.3704 1.28335 20.0009 1.60418 19.7676C1.92502 19.544 2.62503 19.1453 3.15975 18.9023C3.69448 18.6495 4.65699 18.2801 5.29866 18.0759C5.94034 17.8717 7.21396 17.5509 8.11813 17.3564C9.03203 17.1717 10.189 16.9481 10.6945 16.8606C11.2001 16.7731 11.7737 16.6273 11.9584 16.5398C12.2307 16.4037 12.4835 16.0634 13.3196 14.6731C13.8932 13.7397 14.8363 12.2231 15.4293 11.3189C16.0127 10.405 17.0141 8.91747 17.646 8.01329C18.278 7.0994 19.153 5.90355 19.5905 5.33966C20.0377 4.77576 20.6696 4.01742 21.0099 3.64797C21.3502 3.27853 21.8947 2.79241 22.2155 2.55907ZM112.779 12.9425C112.594 13.0495 112.127 13.4578 111.758 13.837C111.379 14.2161 110.844 14.8772 110.562 15.305C110.271 15.7328 109.454 17.2592 108.744 18.7078C108.034 20.1565 107.383 21.4204 107.305 21.5273C107.218 21.6343 107.13 21.7023 107.101 21.6731C107.072 21.644 107.091 21.2065 107.15 20.7009C107.208 20.1954 107.354 19.2717 107.48 18.6592C107.523 18.4668 107.573 18.238 107.627 17.9961C107.743 17.4682 107.873 16.8785 107.966 16.4717C108.102 15.8786 108.248 15.1106 108.287 14.7606L108.355 14.1092C107.743 13.4967 107.48 13.3217 107.364 13.312C107.227 13.312 107.072 13.4189 106.955 13.5745C106.858 13.73 106.634 14.2842 106.469 14.8189C106.314 15.3536 106.109 16.0925 106.032 16.4717C105.886 17.1425 105.866 17.1717 104.884 18.1731C104.34 18.737 103.455 19.719 102.93 20.3606C102.395 21.0023 101.734 21.7704 101.452 22.062C101.171 22.3536 100.733 22.7909 100.49 23.034L100.49 23.0343C100.111 23.394 100.023 23.4426 99.9357 23.3259C99.8871 23.2482 99.8676 22.9565 99.9065 22.694C99.9357 22.4218 100.023 21.9454 100.101 21.6245C100.169 21.3037 100.422 20.4676 100.665 19.7773C100.898 19.087 101.297 18.037 101.55 17.4439C101.65 17.1986 101.776 16.8983 101.903 16.5927L101.904 16.5923L101.905 16.5893C102.085 16.1573 102.27 15.7149 102.395 15.4023C102.609 14.8675 102.794 14.255 102.794 14.0411C102.804 13.8272 102.726 13.5356 102.638 13.38C102.532 13.205 102.386 13.1175 102.23 13.1175C102.055 13.1175 101.793 13.3217 101.258 13.8953L100.529 14.6731C99.1482 13.9439 98.9635 13.8856 98.6815 13.9439C98.4968 13.9828 98.1565 14.1092 97.9329 14.2453C97.6996 14.3717 97.3107 14.7314 97.0482 15.0328C96.7954 15.3439 96.4259 15.8592 96.2315 16.18C96.037 16.5009 95.7454 17.0842 95.5801 17.4634C95.4148 17.8523 95.1912 18.5523 95.0745 19.019C94.9579 19.4954 94.8704 20.137 94.8704 20.4579C94.8704 20.7787 94.9287 21.1384 94.9967 21.2551C95.0745 21.3718 95.3662 21.5954 95.6481 21.7412L96.1634 22.0134C96.5718 21.5662 97.1648 20.662 97.7482 19.7287C98.3412 18.7953 99.0801 17.6578 99.401 17.2009C99.7218 16.7439 100.091 16.2578 100.227 16.1023C100.363 15.9564 100.558 15.8398 100.655 15.8398C100.743 15.8398 100.82 15.8981 100.82 15.9564C100.82 16.0245 100.626 16.5884 100.383 17.2009C100.13 17.8134 99.7801 18.8245 99.5954 19.437C99.4107 20.0495 99.1871 20.9731 99.1093 21.4787C99.0218 22.0523 98.9926 22.5676 99.0412 22.8398C99.0801 23.0829 99.1968 23.4134 99.3135 23.569C99.4204 23.7246 99.644 23.919 99.7996 23.9968C99.9649 24.0648 100.198 24.094 100.334 24.0551C100.47 24.0259 100.811 23.744 101.093 23.4426C101.384 23.1412 102.152 22.237 102.794 21.4301C103.445 20.6329 104.301 19.6023 104.7 19.1453C105.089 18.6884 105.458 18.2703 105.526 18.2023C105.604 18.1148 105.633 18.5912 105.633 20.1467C105.633 21.7995 105.662 22.2662 105.779 22.4995C105.866 22.6551 106.061 22.8496 106.216 22.9273C106.382 22.9954 106.644 23.0829 106.8 23.1023C107.023 23.1412 107.169 23.0829 107.422 22.8787C107.645 22.6843 107.937 22.1982 108.355 21.3329C108.695 20.6426 109.25 19.4759 109.59 18.7565C109.93 18.037 110.397 17.1425 110.611 16.7634C110.825 16.3842 111.272 15.7328 111.593 15.305C111.914 14.8772 112.487 14.187 112.866 13.7689C113.45 13.137 113.537 13.0008 113.44 12.8745C113.372 12.787 113.275 12.7189 113.216 12.7286C113.168 12.7286 112.964 12.8258 112.779 12.9425ZM56.9825 15.4023C57.2353 14.8675 57.6631 14.0897 57.9353 13.6717C58.3728 13.0106 58.4603 12.9231 58.7228 12.9231C58.9658 12.9231 59.0728 13.0106 59.3547 13.4092C59.6756 13.8661 59.7242 13.8953 60.1131 13.8953C60.395 13.8856 60.6089 13.9536 60.8034 14.1092C60.9589 14.2356 61.202 14.5272 61.3381 14.7703C61.5617 15.1495 61.5909 15.3245 61.6006 16.0828C61.6006 16.5592 61.6298 17.0162 61.6687 17.0745C61.7173 17.1717 62.1937 17.2009 63.5353 17.2009C65.0617 17.2009 65.3437 17.2203 65.4117 17.3467C65.4506 17.4439 65.4215 17.5606 65.334 17.6481C65.2465 17.7259 64.7701 17.8523 64.2159 17.9301C63.6812 18.0176 62.8062 18.0662 61.2992 18.037L60.9589 18.8148C60.7742 19.2328 60.4534 19.894 60.2395 20.2634C60.0353 20.6426 59.6853 21.187 59.4714 21.4787C59.2478 21.7704 58.8297 22.2565 58.5381 22.5579C58.1881 22.9079 57.8478 23.1509 57.5853 23.2384C57.2256 23.3551 57.1381 23.3551 56.9144 23.2287C56.7686 23.1509 56.4575 22.9079 56.2242 22.694C55.9617 22.4509 55.7283 22.1398 55.6408 21.8676C55.5144 21.5176 55.495 21.2065 55.5436 20.312C55.5728 19.6995 55.67 18.9509 55.7575 18.6592C55.8353 18.3676 55.9228 18.0467 55.9519 17.9495C55.9908 17.8134 55.9422 17.7842 55.6894 17.7842C55.5144 17.7842 55.1547 17.7259 54.8825 17.6481C54.6102 17.5606 54.2797 17.3759 54.1436 17.2301C53.9977 17.0842 53.8325 16.8606 53.7741 16.7342C53.7158 16.6175 53.6575 16.2967 53.6477 16.0342C53.6283 15.762 53.5797 15.5384 53.5214 15.5286C53.4727 15.5189 53.0741 15.9759 52.6463 16.5398C52.2186 17.1037 51.4797 18.2023 51.0033 18.9606C50.5269 19.7287 49.8658 20.837 49.5449 21.4106C49.0977 22.1982 48.9033 22.4607 48.7574 22.4607C48.6505 22.4607 48.4463 22.3732 48.3005 22.2565C48.0671 22.0912 48.0282 21.994 48.0282 21.5759C48.0282 21.3037 48.0963 20.7981 48.1644 20.4287C48.2421 20.069 48.3782 19.5926 48.456 19.3592C48.5435 19.1356 48.5824 18.9315 48.5435 18.9023C48.4949 18.8828 48.0866 19.3106 47.6199 19.8551C47.163 20.3995 46.3949 21.3231 45.9088 21.9162C45.4324 22.5093 44.8296 23.2093 44.5671 23.4912C44.3046 23.7634 43.9838 24.0259 43.8476 24.0551C43.7115 24.094 43.4782 24.0648 43.3129 23.9968C43.1574 23.919 42.9338 23.7246 42.8268 23.569C42.7101 23.4134 42.5935 23.0829 42.5546 22.8398C42.506 22.5676 42.5351 22.0523 42.6226 21.4787C42.7004 20.9731 42.924 20.0495 43.1087 19.437C43.2935 18.8245 43.6435 17.8134 43.8865 17.2009C44.1296 16.5884 44.3338 16.0245 44.3338 15.9564C44.3338 15.8981 44.256 15.8398 44.1685 15.8398C44.0713 15.8398 43.8768 15.9564 43.7407 16.1023C43.6046 16.2578 43.1768 16.812 42.8074 17.3467C42.4282 17.8814 41.6504 19.0773 41.0671 20.0106C40.4837 20.944 39.9101 21.7704 39.7934 21.8384C39.599 21.9454 39.5115 21.9357 39.0837 21.6926C38.8018 21.5468 38.5587 21.3329 38.5101 21.187C38.4615 21.0509 38.3934 20.8273 38.3643 20.6718C38.3351 20.5259 38.3934 19.9815 38.5004 19.4565C38.6073 18.9412 38.8018 18.212 38.9379 17.8328C39.074 17.4537 39.3754 16.8314 39.599 16.4328C39.8226 16.0439 40.2018 15.4703 40.4448 15.1689C40.6879 14.8675 41.0865 14.4884 41.3198 14.3231C41.5629 14.1675 41.9324 13.9925 42.1462 13.9536C42.4865 13.8856 42.6226 13.9245 44.0421 14.6731L44.7713 13.8953C45.306 13.3217 45.5685 13.1175 45.7435 13.1175C45.8991 13.1175 46.0449 13.205 46.1518 13.38C46.2393 13.5356 46.3171 13.8272 46.3074 14.0411C46.3074 14.255 46.1227 14.8675 45.9088 15.4023C45.7908 15.6972 45.6077 16.1431 45.4183 16.6044L45.4183 16.6044L45.417 16.6076C45.2634 16.9815 45.1058 17.3654 44.9754 17.687C44.674 18.4065 44.2463 19.544 44.0324 20.2148C43.8088 20.8856 43.5754 21.7509 43.4976 22.1301C43.4199 22.519 43.3615 22.9176 43.3615 23.0051C43.3615 23.1023 43.4101 23.2482 43.4588 23.3259C43.5365 23.4426 43.7115 23.3162 44.3921 22.6454C44.849 22.1884 45.5879 21.3815 46.0157 20.8468C46.4532 20.312 47.338 19.3106 47.9796 18.6106C48.9033 17.6189 49.1949 17.2203 49.3796 16.7634C49.506 16.4425 49.8463 15.7036 50.1283 15.1106C50.4199 14.5175 50.7602 13.9245 50.8963 13.7689C51.0324 13.6231 51.2172 13.5064 51.3144 13.5064C51.4019 13.5064 51.6449 13.6717 51.8491 13.8661C52.1505 14.1675 52.2186 14.3036 52.2283 14.6245C52.2283 14.887 52.0727 15.3634 51.7324 16.1023C51.4602 16.705 51.2561 17.2203 51.2852 17.2495C51.3144 17.2787 51.538 17.0064 51.7908 16.637C52.0436 16.2773 52.4713 15.7036 52.7436 15.3536C53.0255 15.0036 53.3755 14.605 53.5408 14.4495C53.6964 14.3036 53.9297 14.187 54.0366 14.187C54.163 14.187 54.3186 14.2939 54.4158 14.4495C54.5519 14.6828 54.5616 14.8578 54.5033 15.5481C54.4644 16.005 54.4547 16.4717 54.4839 16.5884C54.5228 16.7342 54.6589 16.8412 54.863 16.8995C55.0283 16.9578 55.4172 17.0259 56.2436 17.1231L56.3797 16.7439C56.4478 16.5398 56.72 15.937 56.9825 15.4023ZM138.572 13.137C138.456 13.2633 138.222 13.6036 138.028 13.8953C137.843 14.187 137.493 14.8189 137.26 15.305C137.017 15.7814 136.735 16.3939 136.637 16.6467L136.453 17.1231C135.549 17.0162 135.179 16.9384 135.043 16.8898C134.907 16.8412 134.771 16.7439 134.722 16.6856C134.683 16.6175 134.683 16.112 134.712 15.5481C134.771 14.6731 134.751 14.4981 134.615 14.3522C134.528 14.2647 134.362 14.187 134.246 14.187C134.139 14.187 133.944 14.2647 133.837 14.362C133.721 14.4689 133.39 14.8481 133.099 15.2078C132.807 15.5773 132.35 16.1995 132.078 16.5884C131.815 16.9773 131.562 17.2689 131.523 17.2203C131.485 17.1814 131.601 16.8703 131.776 16.5203C131.951 16.1703 132.194 15.6259 132.321 15.305C132.467 14.8967 132.515 14.6342 132.467 14.43C132.428 14.2745 132.253 13.9925 132.068 13.8175C131.883 13.6522 131.66 13.5064 131.572 13.5064C131.475 13.5064 131.28 13.6231 131.135 13.7689C130.989 13.9245 130.59 14.6342 130.25 15.3536C129.9 16.0731 129.598 16.7634 129.56 16.88C129.53 17.0064 129.443 17.1037 129.385 17.1037C129.324 17.1037 129.049 17.0654 128.744 17.0228L128.626 17.0064C128.237 16.9384 127.946 16.8412 127.868 16.7342C127.771 16.6078 127.751 16.3259 127.8 15.5967C127.848 14.8092 127.829 14.5856 127.712 14.4009C127.625 14.2842 127.46 14.187 127.343 14.187C127.197 14.187 126.915 14.4009 126.585 14.7509C126.283 15.0523 125.739 15.7425 125.369 16.2675C124.99 16.7925 124.66 17.2398 124.621 17.2592C124.572 17.2787 124.582 17.1814 124.63 17.0259C124.679 16.88 124.893 16.3842 125.116 15.9078C125.34 15.4411 125.525 14.887 125.544 14.6731C125.564 14.3425 125.515 14.2453 125.175 13.8953C124.961 13.6814 124.708 13.5064 124.621 13.5064C124.523 13.5064 124.339 13.6231 124.203 13.7689C124.066 13.9245 123.736 14.4981 123.464 15.062C123.182 15.6259 122.832 16.3842 122.676 16.7634C122.443 17.337 122.229 17.6092 121.393 18.4648C120.848 19.0287 119.866 20.1176 119.225 20.8954C118.583 21.6731 117.786 22.5579 117.455 22.8593C117.134 23.1704 116.823 23.4037 116.765 23.3746C116.716 23.3454 116.668 23.1218 116.668 22.8593C116.668 22.6065 116.775 21.9648 116.921 21.4301C117.057 20.8954 117.397 19.8259 117.689 19.0481C117.971 18.2703 118.437 17.0939 118.729 16.4231C119.03 15.7523 119.341 14.9648 119.439 14.6731C119.546 14.3328 119.584 14.012 119.546 13.7981C119.516 13.6133 119.409 13.38 119.312 13.2828C119.225 13.1856 119.059 13.1078 118.953 13.1078C118.836 13.1078 118.457 13.4189 118.009 13.8953L117.251 14.6731C117.1 14.5844 116.971 14.509 116.861 14.4449C116.562 14.2699 116.406 14.1784 116.328 14.1286C116.221 14.0703 116.007 13.9828 115.841 13.9536C115.686 13.9147 115.394 13.9439 115.209 14.0022C115.025 14.0703 114.704 14.2356 114.49 14.3717C114.286 14.5078 113.887 14.9259 113.605 15.305C113.323 15.6842 112.934 16.2675 112.75 16.6175C112.555 16.9675 112.273 17.6189 112.118 18.0759C111.962 18.5328 111.777 19.2037 111.709 19.5829C111.641 19.962 111.602 20.4676 111.622 20.7106C111.641 20.9634 111.739 21.2454 111.826 21.3426C111.914 21.4495 112.196 21.6343 112.448 21.7704L112.896 22.0134C113.372 21.4884 113.965 20.594 114.529 19.6995C115.093 18.8051 115.9 17.5801 116.328 16.9773C116.804 16.3162 117.183 15.8786 117.3 15.8592C117.407 15.8398 117.523 15.8592 117.572 15.9078C117.611 15.9467 117.465 16.4134 117.251 16.9287C117.037 17.4537 116.736 18.2606 116.58 18.7273C116.415 19.2037 116.191 19.9523 116.075 20.4092C115.958 20.8662 115.851 21.6051 115.822 22.062C115.79 22.613 115.819 23.0181 115.909 23.2773C115.987 23.5204 116.153 23.7343 116.376 23.8801C116.561 24.0065 116.823 24.1037 116.959 24.1037C117.125 24.1037 117.397 23.8996 117.834 23.4426C118.184 23.0829 118.923 22.2176 119.487 21.5273C120.041 20.837 120.78 19.9329 121.13 19.5342C121.48 19.1356 121.772 18.7856 121.791 18.7565C121.811 18.7273 121.85 18.7273 121.879 18.7565C121.908 18.7856 121.85 19.087 121.733 19.437C121.626 19.787 121.5 20.3023 121.441 20.5745C121.383 20.8565 121.335 21.3037 121.335 21.5759C121.335 21.994 121.373 22.0912 121.607 22.2565C121.753 22.3732 121.957 22.4607 122.064 22.4607C122.21 22.4607 122.404 22.1982 122.851 21.4106C123.172 20.837 123.833 19.7287 124.31 18.9606C124.786 18.2023 125.525 17.1037 125.953 16.5398C126.38 15.9759 126.779 15.5189 126.828 15.5286C126.886 15.5384 126.935 15.762 126.954 16.0342C126.964 16.2967 127.022 16.6175 127.08 16.7342C127.139 16.8606 127.304 17.0842 127.45 17.2301C127.586 17.3759 127.917 17.5606 128.189 17.6481C128.461 17.7259 128.792 17.7842 128.947 17.7842H129.21C128.889 18.7273 128.694 19.369 128.568 19.8259C128.442 20.2829 128.305 20.9343 128.267 21.2843C128.208 21.8773 128.218 21.9357 128.461 22.1787C128.607 22.3343 128.83 22.4509 128.967 22.4509C129.161 22.4509 129.268 22.344 129.482 21.9551C129.628 21.6829 130.143 20.7981 130.619 19.9912C131.105 19.1745 131.728 18.1634 132.019 17.7356C132.311 17.3078 132.817 16.6175 133.137 16.2092C133.468 15.7911 133.75 15.4703 133.779 15.4898C133.808 15.5092 133.847 15.7814 133.876 16.0925C133.915 16.462 134.012 16.7828 134.149 16.9773C134.265 17.1523 134.547 17.3953 134.78 17.5023C135.004 17.6189 135.422 17.7356 135.704 17.7745C135.986 17.8037 136.21 17.8523 136.21 17.8814C136.21 17.9034 136.154 18.1075 136.081 18.3773L136.051 18.4919C136.036 18.5462 136.021 18.6022 136.005 18.6592C135.889 19.0578 135.782 19.8259 135.753 20.3606C135.714 21.012 135.733 21.4593 135.821 21.7218C135.889 21.9357 136.054 22.2662 136.2 22.4509C136.336 22.6357 136.647 22.9079 136.89 23.0537C137.133 23.2093 137.406 23.3259 137.503 23.3259C137.59 23.3259 137.833 23.2482 138.037 23.1412C138.232 23.044 138.66 22.6843 138.971 22.344C139.282 22.0037 139.71 21.4787 139.904 21.187C140.099 20.8954 140.39 20.4287 140.546 20.1662C140.701 19.894 140.983 19.3106 141.178 18.8537L141.537 18.0273C142.947 18.0759 143.725 18.0467 144.182 17.9787C144.639 17.9203 145.154 17.8328 145.329 17.7842C145.572 17.7064 145.631 17.6384 145.621 17.4634C145.592 17.25 145.572 17.2495 143.758 17.2012L143.744 17.2009L141.897 17.1523C141.81 15.4606 141.742 15.1106 141.586 14.8189C141.479 14.605 141.256 14.3134 141.081 14.1578C140.847 13.9536 140.682 13.8953 140.342 13.8953C139.924 13.8953 139.885 13.8661 139.564 13.4092C139.321 13.0592 139.156 12.9231 139 12.9231C138.874 12.9231 138.679 13.0203 138.572 13.137ZM21.4181 5.14522C21.8556 4.64938 22.4584 4.06604 22.75 3.86187C23.0417 3.64798 23.3139 3.51187 23.3528 3.55076C23.3917 3.59937 23.2167 4.26049 22.9542 5.03827C22.6917 5.81606 22.1862 7.21607 21.8264 8.14941C21.4667 9.08276 20.9514 10.4828 20.6889 11.2606C20.4167 12.0383 20.0084 13.2828 19.7847 14.0314L19.5758 14.7025L19.5754 14.7037L19.5747 14.706L19.5744 14.707C19.4346 15.1564 19.3283 15.498 19.3083 15.5578C19.2597 15.6939 19.0945 15.7425 18.4917 15.7814C18.0833 15.8106 17.1305 15.8981 16.3819 15.9759C16.2501 15.9913 16.1167 16.0067 15.9852 16.0219C15.37 16.093 14.795 16.1594 14.6027 16.1995C14.35 16.2384 14.1944 16.2287 14.1944 16.1703C14.1847 16.112 14.5152 15.4995 14.9041 14.8092C15.3028 14.1189 15.9833 12.9522 16.4208 12.2328C16.868 11.5133 17.7819 10.1133 18.4528 9.12165C19.1236 8.12997 19.882 7.04107 20.1445 6.69107C20.407 6.34106 20.9806 5.65078 21.4181 5.14522ZM59.5879 15.6453C59.5782 15.3925 59.6462 15.1884 59.7921 15.0134C59.9379 14.8286 60.0935 14.7606 60.3365 14.7606C60.5893 14.7606 60.706 14.8189 60.8324 15.0231C60.9685 15.2467 60.9782 15.4217 60.9199 15.9759C60.881 16.355 60.8032 16.7148 60.7546 16.7731C60.6963 16.8509 60.5893 16.8703 60.4532 16.8217C60.3462 16.7828 60.1032 16.5884 59.9185 16.3842C59.6851 16.1217 59.5976 15.9273 59.5879 15.6453ZM140.001 15.0231C139.826 15.2467 139.797 15.3828 139.846 15.7328C139.875 16.005 139.982 16.2578 140.118 16.3939C140.244 16.5203 140.458 16.6856 140.604 16.7634C140.847 16.8801 140.886 16.8801 140.993 16.7342C141.061 16.6467 141.139 16.2675 141.158 15.8884C141.178 15.4898 141.148 15.1106 141.08 14.9745C140.993 14.8092 140.886 14.7606 140.594 14.7606C140.293 14.7606 140.166 14.8189 140.001 15.0231ZM57.5171 18.9412C57.6629 18.5426 58.0129 17.7162 58.2948 17.1134C58.5768 16.5203 58.849 16.0245 58.8879 16.0245C58.9268 16.0148 59.0921 16.1995 59.2574 16.4231C59.4129 16.6467 59.7629 17.0259 60.5213 17.6967L60.3851 18.0467C60.3171 18.2412 60.074 18.737 59.8601 19.1356C59.6365 19.5342 59.199 20.1856 58.8976 20.5648C58.5865 20.9537 58.0712 21.4884 57.7504 21.7607C57.4296 22.0232 57.1087 22.2371 57.0407 22.2176C56.9726 22.1982 56.9143 21.9843 56.8948 21.7023C56.8754 21.4398 56.9532 20.8759 57.0601 20.4481C57.167 20.0204 57.3712 19.3398 57.5171 18.9412ZM138.562 17.0162C138.3 17.5703 137.969 18.319 137.833 18.6981C137.697 19.0773 137.493 19.6801 137.386 20.0593C137.279 20.4384 137.162 20.9537 137.123 21.2259C137.084 21.4884 137.084 21.8287 137.123 21.9745C137.153 22.1301 137.25 22.2468 137.328 22.2468C137.405 22.2468 137.814 21.9259 138.222 21.537C138.64 21.1384 139.204 20.4968 139.486 20.0981C139.758 19.6995 140.137 19.0481 140.332 18.6495C140.526 18.2509 140.682 17.8426 140.682 17.7453C140.682 17.6578 140.516 17.4537 140.312 17.3078C140.118 17.1523 139.787 16.8023 139.583 16.5301C139.389 16.2481 139.185 16.0245 139.126 16.0245C139.078 16.0245 138.815 16.4717 138.562 17.0162ZM41.4655 17.4342C41.6891 17.1134 42.0197 16.7342 42.185 16.5787C42.36 16.4328 42.535 16.3162 42.5836 16.3162C42.6225 16.3162 42.5739 16.4814 42.4572 16.6759C42.3502 16.8801 41.8738 17.5995 41.3975 18.2801C40.9308 18.9704 40.4933 19.5245 40.4447 19.5245C40.3863 19.5245 40.3474 19.5051 40.3474 19.4759C40.3474 19.4467 40.503 19.1065 40.6974 18.7176C40.8919 18.3384 41.2322 17.7551 41.4655 17.4342ZM98.7688 16.4912C98.6425 16.5981 98.3216 16.9578 98.0591 17.2981C97.8063 17.6384 97.4174 18.2606 97.2133 18.669C96.9994 19.087 96.8341 19.4467 96.8341 19.4759C96.8341 19.5051 96.873 19.5245 96.9313 19.5245C96.9799 19.5245 97.3688 19.0287 97.7869 18.4259C98.2049 17.8328 98.6133 17.2203 98.7105 17.0648L98.7791 16.9508L98.7797 16.9499C98.8594 16.8176 98.9526 16.663 99.0119 16.5592C99.0897 16.4231 99.1189 16.3162 99.08 16.3162C99.0411 16.3162 98.8952 16.3939 98.7688 16.4912ZM114.072 18.5037C114.393 17.8912 114.782 17.3078 115.151 16.9189C115.462 16.5884 115.754 16.3162 115.802 16.3162C115.851 16.3162 115.89 16.3453 115.89 16.3842C115.89 16.4328 115.54 16.987 115.102 17.6287C114.665 18.2703 114.169 18.9801 114.004 19.2037C113.838 19.4273 113.673 19.5829 113.634 19.544C113.595 19.5051 113.79 19.0384 114.072 18.5037ZM9.04158 18.5134C8.10824 18.7467 7.11656 19.0092 6.85406 19.0967C6.58184 19.1842 5.911 19.4273 5.3471 19.6412C4.78321 19.8551 3.97625 20.1954 3.54847 20.3995C3.12069 20.6037 2.52763 20.9537 2.23596 21.187C1.94429 21.4107 1.59429 21.7315 1.4679 21.8968C1.33178 22.062 1.20539 22.3537 1.18595 22.5384C1.14706 22.7718 1.21512 23.0343 1.37067 23.3648C1.52623 23.6857 2.07068 24.3371 2.96513 25.2607C3.71375 26.0385 4.51098 26.9621 4.7346 27.3024C4.96793 27.6524 5.23043 28.2163 5.33738 28.5663C5.44432 28.9163 5.55127 29.3149 5.58044 29.4607C5.6096 29.6163 5.68738 29.7232 5.74572 29.7038C5.80405 29.6941 6.086 29.0913 6.35822 28.3718C6.64017 27.6524 7.07767 26.5538 7.34018 25.9413C7.60268 25.3287 8.28324 23.8801 8.85686 22.7329C9.43047 21.5857 10.1888 20.1176 10.5388 19.4759C10.8888 18.8342 11.1805 18.2509 11.1805 18.1828C11.1805 18.1245 11.0833 18.0662 10.9569 18.0662C10.8402 18.0759 9.97492 18.2703 9.04158 18.5134Z" fill="white"/>
<path d="M116.815 47.9327V43.1772H120.02V44.0062H117.821V45.1393H119.855V45.9683H117.821V47.1037H120.029V47.9327H116.815Z" fill="white"/>
<path d="M111.351 44.0062V43.1772H115.256V44.0062H113.8V47.9327H112.806V44.0062H111.351Z" fill="white"/>
<path d="M107.126 47.9327H106.049L107.69 43.1772H108.986L110.625 47.9327H109.548L108.357 44.2639H108.32L107.126 47.9327ZM107.059 46.0635H109.604V46.8483H107.059V46.0635Z" fill="white"/>
<path d="M101.424 44.0062V43.1772H105.329V44.0062H103.874V47.9327H102.88V44.0062H101.424Z" fill="white"/>
<path d="M98.984 44.5449C98.9654 44.3576 98.8857 44.2121 98.7448 44.1083C98.6039 44.0046 98.4128 43.9528 98.1713 43.9528C98.0072 43.9528 97.8686 43.976 97.7556 44.0224C97.6426 44.0673 97.5559 44.13 97.4956 44.2105C97.4367 44.291 97.4073 44.3823 97.4073 44.4845C97.4042 44.5697 97.422 44.644 97.4607 44.7074C97.501 44.7709 97.5559 44.8258 97.6256 44.8723C97.6953 44.9172 97.7758 44.9566 97.8671 44.9907C97.9584 45.0232 98.0559 45.0511 98.1597 45.0743L98.5869 45.1765C98.7943 45.2229 98.9847 45.2848 99.1581 45.3622C99.3315 45.4396 99.4816 45.5348 99.6086 45.6478C99.7355 45.7608 99.8338 45.894 99.9035 46.0472C99.9747 46.2005 100.011 46.3762 100.013 46.5743C100.011 46.8653 99.9368 47.1177 99.7897 47.3313C99.6442 47.5433 99.4337 47.7082 99.1581 47.8259C98.8841 47.942 98.5536 48 98.1666 48C97.7827 48 97.4484 47.9412 97.1635 47.8235C96.8802 47.7059 96.6589 47.5317 96.4994 47.3011C96.3415 47.0689 96.2587 46.7817 96.251 46.4396H97.2239C97.2347 46.5991 97.2804 46.7322 97.3609 46.839C97.4429 46.9443 97.5521 47.024 97.6883 47.0782C97.8261 47.1308 97.9816 47.1571 98.155 47.1571C98.3253 47.1571 98.4731 47.1324 98.5985 47.0828C98.7255 47.0333 98.8237 46.9644 98.8934 46.8762C98.9631 46.7879 98.9979 46.6865 98.9979 46.572C98.9979 46.4652 98.9662 46.3754 98.9027 46.3026C98.8408 46.2299 98.7494 46.168 98.6287 46.1169C98.5095 46.0658 98.3632 46.0193 98.1898 45.9776L97.672 45.8475C97.2711 45.75 96.9545 45.5975 96.7223 45.3901C96.4901 45.1827 96.3748 44.9032 96.3764 44.5518C96.3748 44.2639 96.4514 44.0124 96.6062 43.7972C96.7626 43.582 96.977 43.4141 97.2494 43.2933C97.5219 43.1726 97.8315 43.1122 98.1782 43.1122C98.5312 43.1122 98.8392 43.1726 99.1024 43.2933C99.3671 43.4141 99.573 43.582 99.72 43.7972C99.8671 44.0124 99.9429 44.2616 99.9476 44.5449H98.984Z" fill="white"/>
<path d="M91.4854 47.9327V43.1772H94.6897V44.0062H92.4908V45.1393H94.5248V45.9683H92.4908V47.1037H94.699V47.9327H91.4854Z" fill="white"/>
<path d="M84.4316 47.9327V43.1772H85.4371V47.1037H87.4758V47.9327H84.4316Z" fill="white"/>
<path d="M79.4446 47.9327H78.3672L80.0088 43.1772H81.3045L82.9438 47.9327H81.8664L80.6752 44.2639H80.6381L79.4446 47.9327ZM79.3773 46.0635H81.9222V46.8483H79.3773V46.0635Z" fill="white"/>
<path d="M73.7051 47.9327V43.1772H76.9094V44.0062H74.7105V45.1393H76.7446V45.9683H74.7105V47.1037H76.9187V47.9327H73.7051Z" fill="white"/>
<path d="M68.5 47.9327V43.1772H70.3762C70.7353 43.1772 71.0418 43.2415 71.2957 43.37C71.5511 43.4969 71.7454 43.6772 71.8785 43.911C72.0132 44.1432 72.0805 44.4164 72.0805 44.7306C72.0805 45.0464 72.0124 45.3181 71.8762 45.5457C71.74 45.7717 71.5426 45.945 71.2841 46.0658C71.0271 46.1865 70.716 46.2469 70.3506 46.2469H69.0944V45.4389H70.1881C70.38 45.4389 70.5395 45.4125 70.6664 45.3599C70.7934 45.3073 70.8878 45.2283 70.9497 45.1231C71.0132 45.0178 71.0449 44.887 71.0449 44.7306C71.0449 44.5727 71.0132 44.4396 70.9497 44.3313C70.8878 44.2229 70.7926 44.1409 70.6641 44.0851C70.5372 44.0279 70.3769 43.9992 70.1834 43.9992H69.5054V47.9327H68.5ZM71.0681 45.7686L72.25 47.9327H71.1401L69.9838 45.7686H71.0681Z" fill="white"/>
<path d="M62.0832 47.9327H60.3975V43.1772H62.0972C62.5755 43.1772 62.9873 43.2724 63.3325 43.4628C63.6777 43.6517 63.9431 43.9234 64.1289 44.2779C64.3162 44.6323 64.4099 45.0565 64.4099 45.5503C64.4099 46.0457 64.3162 46.4714 64.1289 46.8274C63.9431 47.1834 63.6761 47.4567 63.3278 47.6471C62.9811 47.8375 62.5662 47.9327 62.0832 47.9327ZM61.4029 47.0712H62.0414C62.3386 47.0712 62.5886 47.0186 62.7914 46.9133C62.9958 46.8065 63.149 46.6416 63.2512 46.4187C63.3549 46.1943 63.4068 45.9048 63.4068 45.5503C63.4068 45.1989 63.3549 44.9118 63.2512 44.6888C63.149 44.4659 62.9965 44.3018 62.7938 44.1966C62.591 44.0913 62.341 44.0387 62.0438 44.0387H61.4029V47.0712Z" fill="white"/>
<path d="M58.6514 43.1772V47.9327H57.783L55.7141 44.9396H55.6793V47.9327H54.6738V43.1772H55.5562L57.6088 46.168H57.6506V43.1772H58.6514Z" fill="white"/>
<path d="M49.7549 47.9327V43.1772H52.9592V44.0062H50.7603V45.1393H52.7944V45.9683H50.7603V47.1037H52.9685V47.9327H49.7549Z" fill="white"/>
<path d="M47.9783 45.1625V45.9474H45.8096V45.1625H47.9783Z" fill="white"/>
<path d="M39.9814 47.9327V43.1772H40.9869V45.1393H43.0279V43.1772H44.031V47.9327H43.0279V45.9683H40.9869V47.9327H39.9814Z" fill="white"/>
<path d="M37.2437 44.7144C37.2112 44.6014 37.1655 44.5015 37.1067 44.4149C37.0479 44.3266 36.9759 44.2523 36.8907 44.1919C36.8072 44.13 36.7112 44.0828 36.6028 44.0503C36.496 44.0178 36.3776 44.0015 36.2476 44.0015C36.0045 44.0015 35.7909 44.0619 35.6067 44.1827C35.424 44.3034 35.2816 44.4791 35.1794 44.7097C35.0773 44.9388 35.0262 45.219 35.0262 45.5503C35.0262 45.8816 35.0765 46.1633 35.1771 46.3955C35.2777 46.6277 35.4202 46.805 35.6044 46.9272C35.7886 47.048 36.0061 47.1084 36.2568 47.1084C36.4844 47.1084 36.6787 47.0681 36.8397 46.9876C37.0022 46.9056 37.126 46.7902 37.2112 46.6416C37.2979 46.493 37.3412 46.3173 37.3412 46.1145L37.5456 46.1447H36.3195V45.3878H38.3095V45.9868C38.3095 46.4048 38.2213 46.7639 38.0448 47.0642C37.8683 47.363 37.6253 47.5937 37.3157 47.7562C37.0061 47.9172 36.6516 47.9977 36.2522 47.9977C35.8064 47.9977 35.4147 47.8994 35.0773 47.7028C34.7398 47.5046 34.4767 47.2237 34.2878 46.8599C34.1005 46.4946 34.0068 46.0611 34.0068 45.5596C34.0068 45.1741 34.0626 44.8305 34.174 44.5286C34.287 44.2252 34.4449 43.9683 34.6477 43.7577C34.8505 43.5472 35.0866 43.387 35.3559 43.2771C35.6253 43.1672 35.9171 43.1122 36.2313 43.1122C36.5007 43.1122 36.7514 43.1517 36.9836 43.2306C37.2158 43.308 37.4217 43.4179 37.6013 43.5604C37.7824 43.7028 37.9302 43.8723 38.0448 44.0689C38.1593 44.2639 38.2329 44.4791 38.2654 44.7144H37.2437Z" fill="white"/>
<path d="M32.3472 43.1772V47.9327H31.3418V43.1772H32.3472Z" fill="white"/>
<path d="M25.5488 47.9327V43.1772H26.5542V45.1393H28.5953V43.1772H29.5984V47.9327H28.5953V45.9683H26.5542V47.9327H25.5488Z" fill="white"/>
</svg>
